<svg width="115" height="115" viewBox="0 0 115 115" fill="none" xmlns="http://www.w3.org/2000/svg">
<g filter="url(#filter0_d)">
<circle cx="57.5" cy="52.5" r="47.5" fill="#FFA746"/>
</g>
<path d="M38.9531 65V39.4062H47.918C51.0234 39.4062 53.3789 40.0039 54.9844 41.1992C56.5898 42.3828 57.3926 44.123 57.3926 46.4199C57.3926 47.6738 57.0703 48.7812 56.4258 49.7422C55.7812 50.6914 54.8848 51.3887 53.7363 51.834C55.0488 52.1621 56.0801 52.8242 56.8301 53.8203C57.5918 54.8164 57.9727 56.0352 57.9727 57.4766C57.9727 59.9375 57.1875 61.8008 55.6172 63.0664C54.0469 64.332 51.8086 64.9766 48.9023 65H38.9531ZM44.2266 53.8555V60.7637H48.7441C49.9863 60.7637 50.9531 60.4707 51.6445 59.8848C52.3477 59.2871 52.6992 58.4668 52.6992 57.4238C52.6992 55.0801 51.4863 53.8906 49.0605 53.8555H44.2266ZM44.2266 50.1289H48.1289C50.7891 50.082 52.1191 49.0215 52.1191 46.9473C52.1191 45.7871 51.7793 44.9551 51.0996 44.4512C50.4316 43.9355 49.3711 43.6777 47.918 43.6777H44.2266V50.1289ZM73.7402 65H68.6602V45.418L62.5957 47.2988V43.168L73.1953 39.3711H73.7402V65Z" fill="white"/>
<defs>
<filter id="filter0_d" x="0" y="0" width="115" height="115" filterUnits="userSpaceOnUse" color-interpolation-filters="sRGB">
<feFlood flood-opacity="0" result="BackgroundImageFix"/>
<feColorMatrix in="SourceAlpha" type="matrix" values="0 0 0 0 0 0 0 0 0 0 0 0 0 0 0 0 0 0 127 0"/>
<feOffset dy="5"/>
<feGaussianBlur stdDeviation="5"/>
<feColorMatrix type="matrix" values="0 0 0 0 0 0 0 0 0 0 0 0 0 0 0 0 0 0 0.15 0"/>
<feBlend mode="normal" in2="BackgroundImageFix" result="effect1_dropShadow"/>
<feBlend mode="normal" in="SourceGraphic" in2="effect1_dropShadow" result="shape"/>
</filter>
</defs>
</svg>
