<svg width="115" height="115" viewBox="0 0 115 115" fill="none" xmlns="http://www.w3.org/2000/svg">
<g filter="url(#filter0_d)">
<circle cx="57.5" cy="52.5" r="47.5" fill="#FF6E87"/>
</g>
<path d="M57.7637 56.4746C57.5645 59.2285 56.5449 61.3965 54.7051 62.9785C52.877 64.5605 50.4629 65.3516 47.4629 65.3516C44.1816 65.3516 41.5977 64.25 39.7109 62.0469C37.8359 59.832 36.8984 56.7969 36.8984 52.9414V51.377C36.8984 48.916 37.332 46.748 38.1992 44.873C39.0664 42.998 40.3027 41.5625 41.9082 40.5664C43.5254 39.5586 45.4004 39.0547 47.5332 39.0547C50.4863 39.0547 52.8652 39.8457 54.6699 41.4277C56.4746 43.0098 57.5176 45.2305 57.7988 48.0898H52.5254C52.3965 46.4375 51.9336 45.2422 51.1367 44.5039C50.3516 43.7539 49.1504 43.3789 47.5332 43.3789C45.7754 43.3789 44.457 44.0117 43.5781 45.2773C42.7109 46.5312 42.2656 48.4824 42.2422 51.1309V53.0645C42.2422 55.8301 42.6582 57.8516 43.4902 59.1289C44.334 60.4062 45.6582 61.0449 47.4629 61.0449C49.0918 61.0449 50.3047 60.6758 51.1016 59.9375C51.9102 59.1875 52.373 58.0332 52.4902 56.4746H57.7637ZM78.2246 65H60.6816V61.5195L68.9609 52.6953C70.0977 51.4531 70.9355 50.3691 71.4746 49.4434C72.0254 48.5176 72.3008 47.6387 72.3008 46.8066C72.3008 45.6699 72.0137 44.7793 71.4395 44.1348C70.8652 43.4785 70.0449 43.1504 68.9785 43.1504C67.8301 43.1504 66.9219 43.5488 66.2539 44.3457C65.5977 45.1309 65.2695 46.168 65.2695 47.457H60.1719C60.1719 45.8984 60.541 44.4746 61.2793 43.1855C62.0293 41.8965 63.084 40.8887 64.4434 40.1621C65.8027 39.4238 67.3438 39.0547 69.0664 39.0547C71.7031 39.0547 73.748 39.6875 75.2012 40.9531C76.666 42.2188 77.3984 44.0059 77.3984 46.3145C77.3984 47.5801 77.0703 48.8691 76.4141 50.1816C75.7578 51.4941 74.6328 53.0234 73.0391 54.7695L67.2207 60.9043H78.2246V65Z" fill="white"/>
<defs>
<filter id="filter0_d" x="0" y="0" width="115" height="115" filterUnits="userSpaceOnUse" color-interpolation-filters="sRGB">
<feFlood flood-opacity="0" result="BackgroundImageFix"/>
<feColorMatrix in="SourceAlpha" type="matrix" values="0 0 0 0 0 0 0 0 0 0 0 0 0 0 0 0 0 0 127 0"/>
<feOffset dy="5"/>
<feGaussianBlur stdDeviation="5"/>
<feColorMatrix type="matrix" values="0 0 0 0 0 0 0 0 0 0 0 0 0 0 0 0 0 0 0.15 0"/>
<feBlend mode="normal" in2="BackgroundImageFix" result="effect1_dropShadow"/>
<feBlend mode="normal" in="SourceGraphic" in2="effect1_dropShadow" result="shape"/>
</filter>
</defs>
</svg>
