<svg width="321" height="321" viewBox="0 0 321 321" fill="none" xmlns="http://www.w3.org/2000/svg">
<path d="M162.091 283.577C182.546 281.477 186.303 290.488 201.586 285.959C223.023 279.608 230.715 265.034 243.747 245.619C259.721 221.82 274.681 219.385 288.543 200.862C300.176 185.318 304.307 171.154 291.402 149.505C278.497 127.856 256.554 125.24 235.724 115.658C215.568 106.386 197.431 81.1753 193.242 73.1758C189.052 65.1763 169.347 38.9938 149.964 32.5647C130.581 26.1356 103.533 28.8055 88.6832 61.5803C75.0968 91.5666 58.1914 98.525 48.2855 108.431C38.3796 118.337 27.4338 127.374 25.2574 150.343C23.081 173.313 44.3214 184.095 67.5129 198.905C90.7044 213.714 101.145 234.822 110.286 250.059C119.427 265.296 136.522 286.202 162.091 283.577Z" fill="#F9ECD3"/>
</svg>
