<svg width="1876" height="438" viewBox="0 0 1876 438" fill="none" xmlns="http://www.w3.org/2000/svg">
<path id="Vector 803" d="M83.5806 329.983L-1.35653 376.933C-10.6041 382.044 -16.7969 391.325 -17.9675 401.826C-20.1184 421.121 -5.0164 438 14.3979 438H1643.26C1771.8 438 1876 333.799 1876 205.26V172.811C1876 114.643 1846.71 60.3858 1798.07 28.4741C1741.87 -8.40368 1669.38 -9.30569 1612.27 26.1625L1412.01 150.558C1322.25 206.31 1211.9 217.879 1112.53 181.955C1016.58 147.266 910.198 156.806 821.949 208.013L717.63 268.544C605.337 333.703 473.051 355.431 345.814 329.616L233.868 306.902C182.621 296.504 129.346 304.686 83.5806 329.983Z" fill="#F9ECD3" fill-opacity="0.5"/>
</svg>
