<svg width="288" height="267" viewBox="0 0 288 267" fill="none" xmlns="http://www.w3.org/2000/svg">
<path d="M48.0016 98.5625C39.8098 121.324 23.1465 122.266 22.4671 144.216C21.8739 163.378 39.1487 180.496 50.5747 192.899C66.774 210.485 58.5804 219.269 70.779 234.16C81.0159 246.656 92.1961 252.593 114.787 245.472C137.377 238.351 147.615 223.214 161.941 207.325C175.805 191.95 190.526 201.743 217.876 190.487C242.868 180.2 243.43 164.797 256.538 151.386C271.333 136.251 274.638 115.989 249.564 89.9096C230.138 69.7034 226.047 57.8136 220.237 47.7499C214.427 37.6863 209.673 26.897 190.247 21.0814C170.822 15.2658 161.728 23.7353 142.162 40.7085C122.597 57.6816 105.548 64.1634 89.6317 69.224L89.5304 69.2562C73.6343 74.3103 54.5457 80.3794 48.0016 98.5625Z" fill="#F9D8D3"/>
</svg>
